# xmcd
#
# Track frame offsets:
#	150
#	16188
#	31832
#	47194
#	61123
#	74284
#	89162
#	110397
#	125265
#	138432
#	152226
#	167247
#	182949
#	204401
#	220453
#	237769
#
# Disc length: 3354 seconds
#
# Revision: 1
# Processed by: cddbd v1.5.1PL2 Copyright (c) Steve Scherf et al.
# Submitted via: audiograbber 1.83.01
#
DISCID=e30d1810
DTITLE=Various Artist - EK023
DYEAR=1900
DGENRE=Karaoke
TTITLE0=Brooks, Garth - Thunder Rolls, The
TTITLE1=Carpenter, Mary Chapin - Down At The Twist and Shout
TTITLE2=Brooks and Dunn - Boot Scootin' Boogie
TTITLE3=Haggard, Merle - Okie From Muskogee
TTITLE4=Paycheck, Johnny - Take This Job and Shove It
TTITLE5=Travis, Randy - Hole, The
TTITLE6=Taylor, James - You've Got A Friend
TTITLE7=Yoakam, Dwight - Guitars and Cadillacs
TTITLE8=Gatlin Brothers, The - All The Gold In California
TTITLE9=Fender, Freddie - Wasted days and Wasted Nights
TTITLE10=Murray, Anne - Could I Have This Dance
TTITLE11=Riley, Jeannie C - Harper Valley PTA
TTITLE12=Gill, Vince - If You Ever Have Forever In Mind
TTITLE13=Strait, George - I Just Want To Dance With You
TTITLE14=Montgomery, John Michael - Love Working On You
TTITLE15=Hill, Faith - This Kiss
EXTD=
EXTT0=
EXTT1=
EXTT2=
EXTT3=
EXTT4=
EXTT5=
EXTT6=
EXTT7=
EXTT8=
EXTT9=
EXTT10=
EXTT11=
EXTT12=
EXTT13=
EXTT14=
EXTT15=
PLAYORDER=
